# xmcd
#
# Track frame offsets: 
#        150
#        11860
#        23270
#        44325
#        54957
#        67505
#        79177
#        92337
#        130947
#        166187
#
# Disc length: 2755 seconds
#
# Revision: 2
# Processed by: cddbd v1.5.2PL0 Copyright (c) Steve Scherf et al.
# Submitted via: ExactAudioCopyFreeDBPlugin 1.0
#
DISCID=650ac10a
DTITLE=Various Artist - The King R&B Box Set
DYEAR=1995
DGENRE=Rhythm and Blues
TTITLE0=Lonnie Johnson - Me and My Crazy Self
TTITLE1=Billy Ward and His Dominoes - That's What You're Doin' to Me
TTITLE2=Earl Bostic - No Troubles Bubbles
TTITLE3=Lula Reed with Sonny Thompson - Wild Stage of Life
TTITLE4=Little Willie John - Fever (with string overdub)
TTITLE5=Hank Ballard - Dr. Lover
TTITLE6=Hank Ballard - Get That Hump in Your Back
TTITLE7=Syd Nathan - Syd Nathan and Eli Oberstein Address a Sales Meet
TTITLE7=ing on Sebtember 22, 1951
TTITLE8=Syd Nathan - Syd Nathan Talks About His European Trip in Octob
TTITLE8=er, 1952
TTITLE9=Syd Nathan - Syd Nathan Addresses an A&R  Meeting on December 
TTITLE9=11, 1954
EXTD=
EXTT0=
EXTT1=
EXTT2=
EXTT3=
EXTT4=
EXTT5=
EXTT6=
EXTT7=
EXTT8=
EXTT9=
PLAYORDER=
